<svg xmlns="http://www.w3.org/2000/svg" width="1025" height="1023" viewBox="0 0 1025 1023">
<g>
<path d="M 0.50 0.01 L 0.50 1023.00 L 0.00 1023.00 L 0.00 0.00 L 1025.00 0.00 L 1025.00 0.01 L 512.75 0.01 Z" fill="rgb(11,37,62)"/>
<path d="M 0.50 0.01 L 423.40 0.01 C153.14,0.06 47.28,0.38 43.80,1.11 C33.74,3.22 24.34,8.39 17.04,15.82 C9.28,23.72 4.83,31.84 2.53,42.29 C1.10,48.82 0.97,93.17 1.22,515.00 L 1.50 980.50 L 3.64 986.00 C10.93,1004.71 26.38,1018.54 43.71,1021.86 C46.57,1022.41 236.08,1022.82 513.89,1022.89 L 979.28 1023.00 L 986.39 1020.89 C990.30,1019.72 995.53,1017.75 998.00,1016.49 C1008.33,1011.25 1018.15,999.48 1021.57,988.23 C1022.53,985.08 1023.69,982.07 1024.16,981.55 C1024.66,980.98 1024.93,827.87 1025.00,645.42 L 1025.00 1023.00 L 0.50 1023.00 ZM 787.59 0.01 L 1025.00 0.01 L 1025.00 463.27 C1024.92,245.62 1024.58,42.00 1024.00,42.00 C1023.45,42.00 1023.00,41.10 1023.00,40.01 C1023.00,38.92 1021.82,35.07 1020.37,31.46 C1016.98,22.99 1005.75,10.73 997.30,6.28 C996.04,5.61 995.30,5.02 994.52,4.48 C989.14,0.82 981.74,0.12 787.59,0.01 Z" fill="rgb(3,2,4)"/>
<path d="M 787.59 0.01 C981.74,0.12 989.14,0.82 994.52,4.48 C995.30,5.02 996.04,5.61 997.30,6.28 C1005.75,10.73 1016.98,22.99 1020.37,31.46 C1021.82,35.07 1023.00,38.92 1023.00,40.01 C1023.00,41.10 1023.45,42.00 1024.00,42.00 C1024.58,42.00 1024.92,245.62 1025.00,463.27 L 1025.00 645.42 C1024.93,827.87 1024.66,980.98 1024.16,981.55 C1023.69,982.07 1022.53,985.08 1021.57,988.23 C1018.15,999.48 1008.33,1011.25 998.00,1016.49 C995.53,1017.75 990.30,1019.72 986.39,1020.89 L 979.28 1023.00 L 513.89 1022.89 C236.08,1022.82 46.57,1022.41 43.71,1021.86 C26.38,1018.54 10.93,1004.71 3.64,986.00 L 1.50 980.50 L 1.22 515.00 C0.97,93.17 1.10,48.82 2.53,42.29 C4.83,31.84 9.28,23.72 17.04,15.82 C24.34,8.39 33.74,3.22 43.80,1.11 C47.28,0.38 153.14,0.06 423.40,0.01 L 512.75 0.01 ZM 783.40 800.09 C798.86,800.42 814.83,800.53 818.90,800.34 C822.97,800.15 841.95,800.00 861.07,800.00 L 895.85 800.00 L 898.92 797.41 C900.62,795.99 902.00,794.25 902.00,793.55 C902.00,792.03 893.10,778.38 880.13,760.00 C874.89,752.58 865.28,738.72 858.78,729.22 C852.28,719.71 843.92,707.78 840.19,702.72 C836.46,697.65 832.33,691.70 831.00,689.50 C829.67,687.30 825.21,680.78 821.08,675.00 C808.44,657.28 804.90,652.22 779.92,616.10 C762.73,591.25 747.36,569.14 733.50,549.33 C691.68,489.56 687.59,483.38 688.86,481.82 C689.45,481.09 693.21,476.61 697.22,471.86 C701.22,467.11 709.67,457.02 716.00,449.44 C722.33,441.86 730.23,432.47 733.56,428.58 C736.89,424.69 744.96,414.98 751.49,407.00 C758.01,399.02 768.79,386.06 775.43,378.19 C782.07,370.32 788.85,362.20 790.50,360.15 C792.15,358.09 798.71,350.36 805.08,342.96 C811.45,335.56 823.57,321.17 832.02,311.00 C840.47,300.83 850.38,289.12 854.05,285.00 C860.74,277.47 864.00,272.42 864.00,269.57 C864.00,268.72 862.70,266.58 861.12,264.80 L 858.23 261.58 L 789.47 261.87 C751.65,262.04 720.12,262.40 719.40,262.68 C718.27,263.11 690.68,293.79 679.84,306.65 C677.83,309.04 673.26,314.26 669.70,318.25 C666.13,322.24 657.66,332.06 650.86,340.09 C638.21,355.02 592.13,407.74 584.34,416.21 L 580.00 420.91 L 580.00 344.09 C580.00,267.89 579.98,267.25 577.93,264.63 L 575.85 262.00 L 463.15 262.00 L 461.07 264.63 C459.00,267.27 459.00,267.31 459.00,393.68 C459.00,401.40 459.00,408.65 459.00,415.48 C458.98,515.54 458.98,524.03 462.81,526.44 C463.42,526.82 464.14,527.05 464.97,527.48 C471.07,530.64 481.01,528.66 484.05,523.69 C485.94,520.58 485.99,517.62 486.00,403.75 L 486.00 287.00 L 554.00 287.00 L 553.96 451.50 L 541.88 465.50 C535.24,473.20 523.66,486.41 516.15,494.86 C494.96,518.70 484.44,534.53 474.08,558.16 C467.66,572.79 464.18,583.34 460.93,598.00 C459.13,606.09 458.72,612.31 458.14,640.00 L 457.46 672.50 L 454.31 679.19 C451.71,684.72 450.41,686.28 446.83,688.19 L 442.50 690.50 L 365.26 690.77 L 288.01 691.05 L 287.76 478.44 L 287.50 265.82 L 285.14 263.91 C282.88,262.08 280.48,262.00 230.39,262.00 C179.33,262.00 177.95,262.05 176.00,264.00 C174.01,265.99 174.00,267.33 174.00,530.93 L 174.00 795.85 L 179.27 800.00 L 317.41 800.00 C406.65,800.00 458.55,799.63 464.03,798.96 C494.46,795.24 521.99,782.68 542.01,763.38 C556.97,748.96 568.34,730.14 573.37,711.50 C578.46,692.60 579.23,685.91 580.02,654.00 C580.84,620.43 581.66,614.84 587.18,605.00 C590.12,599.74 604.96,580.15 606.00,580.13 C606.28,580.13 610.88,586.73 616.23,594.81 C621.59,602.89 630.37,616.03 635.75,624.00 C654.85,652.29 712.12,737.45 746.10,788.06 C749.26,792.77 752.62,797.27 753.57,798.06 C754.95,799.20 761.09,799.62 783.40,800.09 ZM 446.50 773.64 C423.70,774.17 232.11,774.65 212.75,774.22 L 200.00 773.94 L 199.99 534.22 C199.98,402.37 199.71,292.88 199.38,290.90 L 198.79 287.29 L 229.14 287.17 C245.84,287.10 260.27,287.29 261.21,287.58 C262.82,288.08 262.93,300.90 262.97,500.25 C263.01,687.87 263.20,712.65 264.53,714.69 L 266.05 717.00 L 353.70 717.00 C415.96,717.00 442.39,716.67 444.93,715.87 C463.03,710.16 473.86,701.07 478.85,687.40 C482.82,676.54 483.21,672.87 483.49,644.00 C483.82,610.74 484.86,602.78 491.35,583.50 C498.28,562.91 504.45,550.67 516.31,534.00 C523.76,523.54 529.01,517.30 553.77,489.50 C558.66,484.00 565.56,476.08 569.09,471.89 C577.03,462.47 588.23,449.57 595.90,441.00 C599.10,437.42 604.35,431.35 607.57,427.50 C614.57,419.12 633.57,397.36 645.98,383.50 C650.90,378.00 655.94,372.15 657.17,370.50 C658.40,368.85 664.21,362.10 670.08,355.50 C675.94,348.90 683.39,340.27 686.62,336.32 C691.96,329.81 696.97,324.14 717.84,301.00 C721.56,296.88 725.63,292.04 726.87,290.25 L 729.14 286.99 L 773.57 287.11 C798.01,287.17 818.00,287.54 818.00,287.92 C818.00,288.31 816.61,289.95 814.91,291.56 C813.21,293.18 810.99,296.11 809.97,298.08 C808.96,300.05 804.61,305.68 800.31,310.59 C796.02,315.50 789.12,323.56 785.00,328.50 C780.88,333.44 772.10,343.82 765.50,351.57 C749.54,370.31 726.67,397.74 720.65,405.36 C717.98,408.74 713.01,414.65 709.61,418.50 C702.30,426.76 670.78,464.33 663.25,473.76 C660.36,477.37 658.00,481.30 658.00,482.49 C658.00,483.69 660.81,488.78 664.25,493.81 C683.08,521.39 686.91,526.92 691.21,532.68 C693.81,536.15 698.38,542.71 701.39,547.25 C704.39,551.79 708.65,557.97 710.86,561.00 C713.06,564.03 719.40,573.03 724.94,581.00 C740.81,603.86 749.94,616.98 754.85,624.00 C757.35,627.58 761.55,633.65 764.19,637.50 C766.82,641.35 770.90,647.24 773.24,650.60 C775.58,653.95 779.65,659.80 782.27,663.60 C784.89,667.39 789.03,673.20 791.46,676.50 C793.90,679.80 797.11,684.50 798.60,686.94 C800.09,689.39 804.05,695.15 807.41,699.75 C813.92,708.69 814.31,709.25 829.35,731.15 C834.77,739.04 840.52,747.30 842.13,749.50 C843.74,751.70 847.58,757.22 850.66,761.78 C853.75,766.33 856.67,770.29 857.14,770.59 C857.61,770.88 858.00,771.70 858.00,772.42 C858.00,773.47 849.20,773.70 812.32,773.61 L 766.64 773.50 L 748.54 746.50 C707.25,684.93 674.48,636.25 671.79,632.50 C670.22,630.30 666.29,624.45 663.07,619.50 C659.84,614.55 654.19,606.22 650.51,601.00 C646.83,595.78 642.53,589.47 640.96,587.00 C639.39,584.53 636.39,579.98 634.30,576.90 C632.21,573.81 626.34,565.17 621.26,557.69 C612.05,544.12 609.50,541.49 606.63,542.59 C605.80,542.91 600.88,547.97 595.69,553.83 C568.84,584.21 562.05,594.46 556.86,612.46 C555.09,618.59 554.73,623.82 554.06,653.00 C553.60,672.53 552.83,687.75 552.19,689.50 C551.60,691.15 550.59,695.20 549.96,698.50 C547.17,713.10 539.16,730.00 530.36,739.83 C517.22,754.52 497.61,765.31 472.57,771.64 C468.55,772.66 459.73,773.33 446.50,773.64 Z" fill="rgb(6,66,108)"/>
<path d="M 783.40 800.09 C761.09,799.62 754.95,799.20 753.57,798.06 C752.62,797.27 749.26,792.77 746.10,788.06 C712.12,737.45 654.85,652.29 635.75,624.00 C630.37,616.03 621.59,602.89 616.23,594.81 C610.88,586.73 606.28,580.13 606.00,580.13 C604.96,580.15 590.12,599.74 587.18,605.00 C581.66,614.84 580.84,620.43 580.02,654.00 C579.23,685.91 578.46,692.60 573.37,711.50 C568.34,730.14 556.97,748.96 542.01,763.38 C521.99,782.68 494.46,795.24 464.03,798.96 C458.55,799.63 406.65,800.00 317.41,800.00 L 179.27 800.00 L 176.63 797.93 L 174.00 795.85 L 174.00 530.93 C174.00,267.33 174.01,265.99 176.00,264.00 C177.95,262.05 179.33,262.00 230.39,262.00 C280.48,262.00 282.88,262.08 285.14,263.91 L 287.50 265.82 L 287.76 478.44 L 288.01 691.05 L 365.26 690.77 L 442.50 690.50 L 446.83 688.19 C450.41,686.28 451.71,684.72 454.31,679.19 L 457.46 672.50 L 458.14 640.00 C458.72,612.31 459.13,606.09 460.93,598.00 C464.18,583.34 467.66,572.79 474.08,558.16 C484.44,534.53 494.96,518.70 516.15,494.86 C523.66,486.41 535.24,473.20 541.88,465.50 L 553.96 451.50 L 553.98 369.25 L 554.00 287.00 L 520.00 287.00 L 486.00 287.00 L 486.00 403.75 C485.99,517.62 485.94,520.58 484.05,523.69 C481.01,528.66 471.07,530.64 464.97,527.48 C458.63,524.21 459.00,532.53 459.00,393.68 C459.00,267.31 459.00,267.27 461.07,264.63 L 463.15 262.00 L 519.50 262.00 L 575.85 262.00 L 577.93 264.63 C579.98,267.25 580.00,267.89 580.00,344.09 L 580.00 420.91 L 584.34 416.21 C592.13,407.74 638.21,355.02 650.86,340.09 C657.66,332.06 666.13,322.24 669.70,318.25 C673.26,314.26 677.83,309.04 679.84,306.65 C690.68,293.79 718.27,263.11 719.40,262.68 C720.12,262.40 751.65,262.04 789.47,261.87 L 858.23 261.58 L 861.12 264.80 C862.70,266.58 864.00,268.72 864.00,269.57 C864.00,272.42 860.74,277.47 854.05,285.00 C850.38,289.12 840.47,300.83 832.02,311.00 C823.57,321.17 811.45,335.56 805.08,342.96 C798.71,350.36 792.15,358.09 790.50,360.15 C788.85,362.20 782.07,370.32 775.43,378.19 C768.79,386.06 758.01,399.02 751.49,407.00 C744.96,414.98 736.89,424.69 733.56,428.58 C730.23,432.47 722.33,441.86 716.00,449.44 C709.67,457.02 701.22,467.11 697.22,471.86 C693.21,476.61 689.45,481.09 688.86,481.82 C687.59,483.38 691.68,489.56 733.50,549.33 C747.36,569.14 762.73,591.25 779.92,616.10 C804.90,652.22 808.44,657.28 821.08,675.00 C825.21,680.78 829.67,687.30 831.00,689.50 C832.33,691.70 836.46,697.65 840.19,702.72 C843.92,707.78 852.28,719.71 858.78,729.22 C865.28,738.72 874.89,752.58 880.13,760.00 C893.10,778.38 902.00,792.03 902.00,793.55 C902.00,794.25 900.62,795.99 898.92,797.41 L 895.85 800.00 L 861.07 800.00 C841.95,800.00 822.97,800.15 818.90,800.34 C814.83,800.53 798.86,800.42 783.40,800.09 ZM 446.50 773.64 C459.73,773.33 468.55,772.66 472.57,771.64 C497.61,765.31 517.22,754.52 530.36,739.83 C539.16,730.00 547.17,713.10 549.96,698.50 C550.59,695.20 551.60,691.15 552.19,689.50 C552.83,687.75 553.60,672.53 554.06,653.00 C554.73,623.82 555.09,618.59 556.86,612.46 C562.05,594.46 568.84,584.21 595.69,553.83 C600.88,547.97 605.80,542.91 606.63,542.59 C609.50,541.49 612.05,544.12 621.26,557.69 C626.34,565.17 632.21,573.81 634.30,576.90 C636.39,579.98 639.39,584.53 640.96,587.00 C642.53,589.47 646.83,595.78 650.51,601.00 C654.19,606.22 659.84,614.55 663.07,619.50 C666.29,624.45 670.22,630.30 671.79,632.50 C674.48,636.25 707.25,684.93 748.54,746.50 L 766.64 773.50 L 812.32 773.61 C849.20,773.70 858.00,773.47 858.00,772.42 C858.00,771.70 857.61,770.88 857.14,770.59 C856.67,770.29 853.75,766.33 850.66,761.78 C847.58,757.22 843.74,751.70 842.13,749.50 C840.52,747.30 834.77,739.04 829.35,731.15 C814.31,709.25 813.92,708.69 807.41,699.75 C804.05,695.15 800.09,689.39 798.60,686.94 C797.11,684.50 793.90,679.80 791.46,676.50 C789.03,673.20 784.89,667.39 782.27,663.60 C779.65,659.80 775.58,653.95 773.24,650.60 C770.90,647.24 766.82,641.35 764.19,637.50 C761.55,633.65 757.35,627.58 754.85,624.00 C749.94,616.98 740.81,603.86 724.94,581.00 C719.40,573.03 713.06,564.03 710.86,561.00 C708.65,557.97 704.39,551.79 701.39,547.25 C698.38,542.71 693.81,536.15 691.21,532.68 C686.91,526.92 683.08,521.39 664.25,493.81 C660.81,488.78 658.00,483.69 658.00,482.49 C658.00,481.30 660.36,477.37 663.25,473.76 C670.78,464.33 702.30,426.76 709.61,418.50 C713.01,414.65 717.98,408.74 720.65,405.36 C726.67,397.74 749.54,370.31 765.50,351.57 C772.10,343.82 780.88,333.44 785.00,328.50 C789.12,323.56 796.02,315.50 800.31,310.59 C804.61,305.68 808.96,300.05 809.97,298.08 C810.99,296.11 813.21,293.18 814.91,291.56 C816.61,289.95 818.00,288.31 818.00,287.92 C818.00,287.54 798.01,287.17 773.57,287.11 L 729.14 286.99 L 726.87 290.25 C725.63,292.04 721.56,296.88 717.84,301.00 C696.97,324.14 691.96,329.81 686.62,336.32 C683.39,340.27 675.94,348.90 670.08,355.50 C664.21,362.10 658.40,368.85 657.17,370.50 C655.94,372.15 650.90,378.00 645.98,383.50 C633.57,397.36 614.57,419.12 607.57,427.50 C604.35,431.35 599.10,437.42 595.90,441.00 C588.23,449.57 577.03,462.47 569.09,471.89 C565.56,476.08 558.66,484.00 553.77,489.50 C529.01,517.30 523.76,523.54 516.31,534.00 C504.45,550.67 498.28,562.91 491.35,583.50 C484.86,602.78 483.82,610.74 483.49,644.00 C483.21,672.87 482.82,676.54 478.85,687.40 C473.86,701.07 463.03,710.16 444.93,715.87 C442.39,716.67 415.96,717.00 353.70,717.00 L 266.05 717.00 L 264.53 714.69 C263.20,712.65 263.01,687.87 262.97,500.25 C262.93,300.90 262.82,288.08 261.21,287.58 C260.27,287.29 245.84,287.10 229.14,287.17 L 198.79 287.29 L 199.38 290.90 C199.71,292.88 199.98,402.37 199.99,534.22 L 200.00 773.94 L 212.75 774.22 C232.11,774.65 423.70,774.17 446.50,773.64 Z" fill="rgb(250,252,252)"/>
</g>
</svg>